<svg aria-roledescription="er" viewBox="0 0 459.3136291503906 298" style="max-width: 459.314px; background-color: white;" xmlns:xlink="http://www.w3.org/1999/xlink" xmlns="http://www.w3.org/2000/svg" width="100%" id="mermaid-0"><style>#mermaid-0{font-family:"trebuchet ms",verdana,arial,sans-serif;font-size:16px;fill:#000000;}#mermaid-0 .error-icon{fill:#552222;}#mermaid-0 .error-text{fill:#552222;stroke:#552222;}#mermaid-0 .edge-thickness-normal{stroke-width:2px;}#mermaid-0 .edge-thickness-thick{stroke-width:3.5px;}#mermaid-0 .edge-pattern-solid{stroke-dasharray:0;}#mermaid-0 .edge-pattern-dashed{stroke-dasharray:3;}#mermaid-0 .edge-pattern-dotted{stroke-dasharray:2;}#mermaid-0 .marker{fill:#000000;stroke:#000000;}#mermaid-0 .marker.cross{stroke:#000000;}#mermaid-0 svg{font-family:"trebuchet ms",verdana,arial,sans-serif;font-size:16px;}#mermaid-0 .entityBox{fill:#cde498;stroke:#13540c;}#mermaid-0 .attributeBoxOdd{fill:#ffffff;stroke:#13540c;}#mermaid-0 .attributeBoxEven{fill:#f2f2f2;stroke:#13540c;}#mermaid-0 .relationshipLabelBox{fill:hsl(78.1578947368, 58.4615384615%, 84.5098039216%);opacity:0.7;background-color:hsl(78.1578947368, 58.4615384615%, 84.5098039216%);}#mermaid-0 .relationshipLabelBox rect{opacity:0.5;}#mermaid-0 .relationshipLine{stroke:#000000;}#mermaid-0 .entityTitleText{text-anchor:middle;font-size:18px;fill:#000000;}#mermaid-0 :root{--mermaid-font-family:"trebuchet ms",verdana,arial,sans-serif;}</style><g/><defs><marker orient="auto" markerHeight="18" markerWidth="18" refY="9" refX="0" id="ONLY_ONE_START"><path d="M9,0 L9,18 M15,0 L15,18" fill="none" stroke="gray"/></marker></defs><defs><marker orient="auto" markerHeight="18" markerWidth="18" refY="9" refX="18" id="ONLY_ONE_END"><path d="M3,0 L3,18 M9,0 L9,18" fill="none" stroke="gray"/></marker></defs><defs><marker orient="auto" markerHeight="18" markerWidth="30" refY="9" refX="0" id="ZERO_OR_ONE_START"><circle r="6" cy="9" cx="21" fill="white" stroke="gray"/><path d="M9,0 L9,18" fill="none" stroke="gray"/></marker></defs><defs><marker orient="auto" markerHeight="18" markerWidth="30" refY="9" refX="30" id="ZERO_OR_ONE_END"><circle r="6" cy="9" cx="9" fill="white" stroke="gray"/><path d="M21,0 L21,18" fill="none" stroke="gray"/></marker></defs><defs><marker orient="auto" markerHeight="36" markerWidth="45" refY="18" refX="18" id="ONE_OR_MORE_START"><path d="M0,18 Q 18,0 36,18 Q 18,36 0,18 M42,9 L42,27" fill="none" stroke="gray"/></marker></defs><defs><marker orient="auto" markerHeight="36" markerWidth="45" refY="18" refX="27" id="ONE_OR_MORE_END"><path d="M3,9 L3,27 M9,18 Q27,0 45,18 Q27,36 9,18" fill="none" stroke="gray"/></marker></defs><defs><marker orient="auto" markerHeight="36" markerWidth="57" refY="18" refX="18" id="ZERO_OR_MORE_START"><circle r="6" cy="18" cx="48" fill="white" stroke="gray"/><path d="M0,18 Q18,0 36,18 Q18,36 0,18" fill="none" stroke="gray"/></marker></defs><defs><marker orient="auto" markerHeight="36" markerWidth="57" refY="18" refX="39" id="ZERO_OR_MORE_END"><circle r="6" cy="18" cx="9" fill="white" stroke="gray"/><path d="M21,18 Q39,0 57,18 Q39,36 21,18" fill="none" stroke="gray"/></marker></defs><path style="stroke: gray; fill: none;" marker-start="url(#ZERO_OR_MORE_START)" marker-end="url(#ONLY_ONE_END)" d="M74.31692504882812,88L74.31692504882812,96.33333333333333C74.31692504882812,104.66666666666667,74.31692504882812,121.33333333333333,78.70288996110882,138C83.08885487338954,154.66666666666666,91.86078469795093,171.33333333333334,96.24674961023163,179.66666666666666L100.63271452251233,188" class="er relationshipLine"/><path style="stroke: gray; fill: none;" marker-start="url(#ZERO_OR_MORE_START)" marker-end="url(#ONLY_ONE_END)" d="M349.6058585757301,77L355.65744587731734,87.16666666666667C361.7090331789047,97.33333333333333,373.81220778207927,117.66666666666667,379.8637950836666,138C385.9153823852539,158.33333333333334,385.9153823852539,178.66666666666666,385.9153823852539,188.83333333333334L385.9153823852539,199" class="er relationshipLine"/><path style="stroke: gray; fill: none;" marker-start="url(#ZERO_OR_MORE_START)" marker-end="url(#ONLY_ONE_END)" d="M305.94966952006024,77L292.70395586225726,87.16666666666667C279.4582422044542,97.33333333333333,252.96681488884823,117.66666666666667,230.75983258855274,136.16666666666666C208.55285028825725,154.66666666666666,190.63031300327233,171.33333333333334,181.6690443607799,179.66666666666666L172.70777571828742,188" class="er relationshipLine"/><g transform="translate(58.835174560546875,188 )" id="entity-habits-65c1fb92-6d7a-4f8b-995d-6714858d075a"><rect height="90" width="130.9635009765625" y="0" x="0" class="er entityBox"/><text style="dominant-baseline: middle; text-anchor: middle; font-size: 12px;" transform="translate(65.48175048828125,12)" y="0" x="0" id="text-entity-habits-65c1fb92-6d7a-4f8b-995d-6714858d075a" class="er entityLabel">habits</text><rect height="22" width="54.04840087890625" y="24" x="0" class="er attributeBoxOdd"/><text style="dominant-baseline: middle; font-size: 10.2px;" transform="translate(5,35)" y="0" x="0" id="text-entity-habits-65c1fb92-6d7a-4f8b-995d-6714858d075a-attr-1-type" class="er entityLabel">String</text><rect height="22" width="55.234375" y="24" x="54.04840087890625" class="er attributeBoxOdd"/><text style="dominant-baseline: middle; font-size: 10.2px;" transform="translate(59.04840087890625,35)" y="0" x="0" id="text-entity-habits-65c1fb92-6d7a-4f8b-995d-6714858d075a-attr-1-name" class="er entityLabel">id</text><rect height="22" width="21.68072509765625" y="24" x="109.28277587890625" class="er attributeBoxOdd"/><text style="dominant-baseline: middle; font-size: 10.2px;" transform="translate(114.28277587890625,35)" y="0" x="0" id="text-entity-habits-65c1fb92-6d7a-4f8b-995d-6714858d075a-attr-1-key" class="er entityLabel">PK</text><rect height="22" width="54.04840087890625" y="46" x="0" class="er attributeBoxEven"/><text style="dominant-baseline: middle; font-size: 10.2px;" transform="translate(5,57)" y="0" x="0" id="text-entity-habits-65c1fb92-6d7a-4f8b-995d-6714858d075a-attr-2-type" class="er entityLabel">String</text><rect height="22" width="55.234375" y="46" x="54.04840087890625" class="er attributeBoxEven"/><text style="dominant-baseline: middle; font-size: 10.2px;" transform="translate(59.04840087890625,57)" y="0" x="0" id="text-entity-habits-65c1fb92-6d7a-4f8b-995d-6714858d075a-attr-2-name" class="er entityLabel">title</text><rect height="22" width="21.68072509765625" y="46" x="109.28277587890625" class="er attributeBoxEven"/><text style="dominant-baseline: middle; font-size: 10.2px;" transform="translate(114.28277587890625,57)" y="0" x="0" id="text-entity-habits-65c1fb92-6d7a-4f8b-995d-6714858d075a-attr-2-key" class="er entityLabel"/><rect height="22" width="54.04840087890625" y="68" x="0" class="er attributeBoxOdd"/><text style="dominant-baseline: middle; font-size: 10.2px;" transform="translate(5,79)" y="0" x="0" id="text-entity-habits-65c1fb92-6d7a-4f8b-995d-6714858d075a-attr-3-type" class="er entityLabel">DateTime</text><rect height="22" width="55.234375" y="68" x="54.04840087890625" class="er attributeBoxOdd"/><text style="dominant-baseline: middle; font-size: 10.2px;" transform="translate(59.04840087890625,79)" y="0" x="0" id="text-entity-habits-65c1fb92-6d7a-4f8b-995d-6714858d075a-attr-3-name" class="er entityLabel">createdAt</text><rect height="22" width="21.68072509765625" y="68" x="109.28277587890625" class="er attributeBoxOdd"/><text style="dominant-baseline: middle; font-size: 10.2px;" transform="translate(114.28277587890625,79)" y="0" x="0" id="text-entity-habits-65c1fb92-6d7a-4f8b-995d-6714858d075a-attr-3-key" class="er entityLabel"/></g><g transform="translate(20,20 )" id="entity-weekdays-98a83f6a-94f9-4792-800e-14b093badbbc"><rect height="68" width="108.63385009765625" y="0" x="0" class="er entityBox"/><text style="dominant-baseline: middle; text-anchor: middle; font-size: 12px;" transform="translate(54.316925048828125,12)" y="0" x="0" id="text-entity-weekdays-98a83f6a-94f9-4792-800e-14b093badbbc" class="er entityLabel">week_days</text><rect height="22" width="36.484375" y="24" x="0" class="er attributeBoxOdd"/><text style="dominant-baseline: middle; font-size: 10.2px;" transform="translate(5,35)" y="0" x="0" id="text-entity-weekdays-98a83f6a-94f9-4792-800e-14b093badbbc-attr-1-type" class="er entityLabel">String</text><rect height="22" width="50.46875" y="24" x="36.484375" class="er attributeBoxOdd"/><text style="dominant-baseline: middle; font-size: 10.2px;" transform="translate(41.484375,35)" y="0" x="0" id="text-entity-weekdays-98a83f6a-94f9-4792-800e-14b093badbbc-attr-1-name" class="er entityLabel">id</text><rect height="22" width="21.68072509765625" y="24" x="86.953125" class="er attributeBoxOdd"/><text style="dominant-baseline: middle; font-size: 10.2px;" transform="translate(91.953125,35)" y="0" x="0" id="text-entity-weekdays-98a83f6a-94f9-4792-800e-14b093badbbc-attr-1-key" class="er entityLabel">PK</text><rect height="22" width="36.484375" y="46" x="0" class="er attributeBoxEven"/><text style="dominant-baseline: middle; font-size: 10.2px;" transform="translate(5,57)" y="0" x="0" id="text-entity-weekdays-98a83f6a-94f9-4792-800e-14b093badbbc-attr-2-type" class="er entityLabel">Int</text><rect height="22" width="50.46875" y="46" x="36.484375" class="er attributeBoxEven"/><text style="dominant-baseline: middle; font-size: 10.2px;" transform="translate(41.484375,57)" y="0" x="0" id="text-entity-weekdays-98a83f6a-94f9-4792-800e-14b093badbbc-attr-2-name" class="er entityLabel">weekDay</text><rect height="22" width="21.68072509765625" y="46" x="86.953125" class="er attributeBoxEven"/><text style="dominant-baseline: middle; font-size: 10.2px;" transform="translate(91.953125,57)" y="0" x="0" id="text-entity-weekdays-98a83f6a-94f9-4792-800e-14b093badbbc-attr-2-key" class="er entityLabel"/></g><g transform="translate(332.5171432495117,199 )" id="entity-days-d98ee401-fb2e-496c-bfe3-0163c1dc5fb7"><rect height="68" width="106.79647827148438" y="0" x="0" class="er entityBox"/><text style="dominant-baseline: middle; text-anchor: middle; font-size: 12px;" transform="translate(53.39823913574219,12)" y="0" x="0" id="text-entity-days-d98ee401-fb2e-496c-bfe3-0163c1dc5fb7" class="er entityLabel">days</text><rect height="22" width="54.04840087890625" y="24" x="0" class="er attributeBoxOdd"/><text style="dominant-baseline: middle; font-size: 10.2px;" transform="translate(5,35)" y="0" x="0" id="text-entity-days-d98ee401-fb2e-496c-bfe3-0163c1dc5fb7-attr-1-type" class="er entityLabel">String</text><rect height="22" width="31.067352294921875" y="24" x="54.04840087890625" class="er attributeBoxOdd"/><text style="dominant-baseline: middle; font-size: 10.2px;" transform="translate(59.04840087890625,35)" y="0" x="0" id="text-entity-days-d98ee401-fb2e-496c-bfe3-0163c1dc5fb7-attr-1-name" class="er entityLabel">id</text><rect height="22" width="21.68072509765625" y="24" x="85.11575317382812" class="er attributeBoxOdd"/><text style="dominant-baseline: middle; font-size: 10.2px;" transform="translate(90.11575317382812,35)" y="0" x="0" id="text-entity-days-d98ee401-fb2e-496c-bfe3-0163c1dc5fb7-attr-1-key" class="er entityLabel">PK</text><rect height="22" width="54.04840087890625" y="46" x="0" class="er attributeBoxEven"/><text style="dominant-baseline: middle; font-size: 10.2px;" transform="translate(5,57)" y="0" x="0" id="text-entity-days-d98ee401-fb2e-496c-bfe3-0163c1dc5fb7-attr-2-type" class="er entityLabel">DateTime</text><rect height="22" width="31.067352294921875" y="46" x="54.04840087890625" class="er attributeBoxEven"/><text style="dominant-baseline: middle; font-size: 10.2px;" transform="translate(59.04840087890625,57)" y="0" x="0" id="text-entity-days-d98ee401-fb2e-496c-bfe3-0163c1dc5fb7-attr-2-name" class="er entityLabel">date</text><rect height="22" width="21.68072509765625" y="46" x="85.11575317382812" class="er attributeBoxEven"/><text style="dominant-baseline: middle; font-size: 10.2px;" transform="translate(90.11575317382812,57)" y="0" x="0" id="text-entity-days-d98ee401-fb2e-496c-bfe3-0163c1dc5fb7-attr-2-key" class="er entityLabel"/></g><g transform="translate(285.9153823852539,31 )" id="entity-dayhabits-abe08989-0761-4026-b047-e3569cddee5e"><rect height="46" width="100" y="0" x="0" class="er entityBox"/><text style="dominant-baseline: middle; text-anchor: middle; font-size: 12px;" transform="translate(50,12)" y="0" x="0" id="text-entity-dayhabits-abe08989-0761-4026-b047-e3569cddee5e" class="er entityLabel">day_habits</text><rect height="22" width="44.231424967447914" y="24" x="0" class="er attributeBoxOdd"/><text style="dominant-baseline: middle; font-size: 10.2px;" transform="translate(5,35)" y="0" x="0" id="text-entity-dayhabits-abe08989-0761-4026-b047-e3569cddee5e-attr-1-type" class="er entityLabel">String</text><rect height="22" width="26.340799967447918" y="24" x="44.231424967447914" class="er attributeBoxOdd"/><text style="dominant-baseline: middle; font-size: 10.2px;" transform="translate(49.231424967447914,35)" y="0" x="0" id="text-entity-dayhabits-abe08989-0761-4026-b047-e3569cddee5e-attr-1-name" class="er entityLabel">id</text><rect height="22" width="29.427775065104168" y="24" x="70.57222493489583" class="er attributeBoxOdd"/><text style="dominant-baseline: middle; font-size: 10.2px;" transform="translate(75.57222493489583,35)" y="0" x="0" id="text-entity-dayhabits-abe08989-0761-4026-b047-e3569cddee5e-attr-1-key" class="er entityLabel">PK</text></g><rect height="14" width="27.96875" y="133.108642578125" x="65.29651641845703" class="er relationshipLabelBox"/><text style="text-anchor: middle; dominant-baseline: middle; font-size: 12px;" y="140.108642578125" x="79.28089141845703" id="rel1" class="er relationshipLabel">habit</text><rect height="14" width="18.990234375" y="127.78829956054688" x="369.3636169433594" class="er relationshipLabelBox"/><text style="text-anchor: middle; dominant-baseline: middle; font-size: 12px;" y="134.78829956054688" x="378.8587341308594" id="rel2" class="er relationshipLabel">day</text><rect height="14" width="27.96875" y="123.48553466796875" x="223.65713500976562" class="er relationshipLabelBox"/><text style="text-anchor: middle; dominant-baseline: middle; font-size: 12px;" y="130.48553466796875" x="237.64151000976562" id="rel3" class="er relationshipLabel">habit</text></svg>